<svg width="860" height="230" viewBox="0 0 860 230">
      <!-- Source systems -->
      <rect x="20" y="10" width="170" height="210" rx="14" fill="rgba(96,165,250,0.05)" stroke="rgba(96,165,250,0.2)" stroke-width="1.5"/>
      <text x="105" y="35" text-anchor="middle" fill="#93c5fd" font-family="Inter,sans-serif" font-size="11" font-weight="600">SOURCE SYSTEMS</text>

      <rect x="40" y="50" width="130" height="32" rx="6" fill="rgba(96,165,250,0.1)" stroke="rgba(96,165,250,0.25)" stroke-width="1"/>
      <text x="105" y="71" text-anchor="middle" fill="#93c5fd" font-family="Inter,sans-serif" font-size="10" font-weight="500">Core Banking (DB)</text>
      <rect x="40" y="90" width="130" height="32" rx="6" fill="rgba(96,165,250,0.1)" stroke="rgba(96,165,250,0.25)" stroke-width="1"/>
      <text x="105" y="111" text-anchor="middle" fill="#93c5fd" font-family="Inter,sans-serif" font-size="10" font-weight="500">SAP ERP (RFC)</text>
      <rect x="40" y="130" width="130" height="32" rx="6" fill="rgba(96,165,250,0.1)" stroke="rgba(96,165,250,0.25)" stroke-width="1"/>
      <text x="105" y="151" text-anchor="middle" fill="#93c5fd" font-family="Inter,sans-serif" font-size="10" font-weight="500">CRM (REST API)</text>
      <rect x="40" y="170" width="130" height="32" rx="6" fill="rgba(96,165,250,0.1)" stroke="rgba(96,165,250,0.25)" stroke-width="1"/>
      <text x="105" y="191" text-anchor="middle" fill="#93c5fd" font-family="Inter,sans-serif" font-size="10" font-weight="500">Legacy (SOAP/MQ)</text>

      <!-- Arrows in -->
      <line x1="194" y1="66" x2="260" y2="100" stroke="#475569" stroke-width="1.5" marker-end="url(#arr)"/>
      <line x1="194" y1="106" x2="260" y2="110" stroke="#475569" stroke-width="1.5" marker-end="url(#arr)"/>
      <line x1="194" y1="146" x2="260" y2="120" stroke="#475569" stroke-width="1.5" marker-end="url(#arr)"/>
      <line x1="194" y1="186" x2="260" y2="130" stroke="#475569" stroke-width="1.5" marker-end="url(#arr)"/>

      <!-- BiTool integration hub -->
      <rect x="270" y="40" width="310" height="150" rx="16" fill="rgba(167,139,250,0.08)" stroke="rgba(167,139,250,0.35)" stroke-width="2"/>
      <text x="425" y="65" text-anchor="middle" fill="#c4b5fd" font-family="Inter,sans-serif" font-size="13" font-weight="700">BiTool Integration Hub</text>

      <rect x="295" y="80" width="110" height="34" rx="7" fill="rgba(244,114,182,0.1)" stroke="rgba(244,114,182,0.2)" stroke-width="1"/>
      <text x="350" y="102" text-anchor="middle" fill="#f9a8d4" font-family="Inter,sans-serif" font-size="10" font-weight="500">Transform</text>

      <rect x="295" y="122" width="110" height="34" rx="7" fill="rgba(251,191,36,0.1)" stroke="rgba(251,191,36,0.2)" stroke-width="1"/>
      <text x="350" y="144" text-anchor="middle" fill="#fcd34d" font-family="Inter,sans-serif" font-size="10" font-weight="500">Route &amp; Enrich</text>

      <rect x="430" y="80" width="130" height="34" rx="7" fill="rgba(52,211,153,0.1)" stroke="rgba(52,211,153,0.2)" stroke-width="1"/>
      <text x="495" y="102" text-anchor="middle" fill="#6ee7b7" font-family="Inter,sans-serif" font-size="10" font-weight="500">Validate &amp; Map</text>

      <rect x="430" y="122" width="130" height="34" rx="7" fill="rgba(34,211,238,0.1)" stroke="rgba(34,211,238,0.2)" stroke-width="1"/>
      <text x="495" y="144" text-anchor="middle" fill="#67e8f9" font-family="Inter,sans-serif" font-size="10" font-weight="500">Error Handling</text>

      <text x="425" y="178" text-anchor="middle" fill="#94a3b8" font-family="Inter,sans-serif" font-size="9">Visual design &bull; Real-time monitoring &bull; Versioned</text>

      <!-- Arrows out -->
      <line x1="584" y1="100" x2="650" y2="66" stroke="#475569" stroke-width="1.5" marker-end="url(#arr)"/>
      <line x1="584" y1="110" x2="650" y2="106" stroke="#475569" stroke-width="1.5" marker-end="url(#arr)"/>
      <line x1="584" y1="120" x2="650" y2="146" stroke="#475569" stroke-width="1.5" marker-end="url(#arr)"/>
      <line x1="584" y1="130" x2="650" y2="186" stroke="#475569" stroke-width="1.5" marker-end="url(#arr)"/>

      <!-- Target systems -->
      <rect x="660" y="10" width="170" height="210" rx="14" fill="rgba(52,211,153,0.05)" stroke="rgba(52,211,153,0.2)" stroke-width="1.5"/>
      <text x="745" y="35" text-anchor="middle" fill="#6ee7b7" font-family="Inter,sans-serif" font-size="11" font-weight="600">TARGET SYSTEMS</text>

      <rect x="680" y="50" width="130" height="32" rx="6" fill="rgba(52,211,153,0.1)" stroke="rgba(52,211,153,0.25)" stroke-width="1"/>
      <text x="745" y="71" text-anchor="middle" fill="#6ee7b7" font-family="Inter,sans-serif" font-size="10" font-weight="500">Payment Rails</text>
      <rect x="680" y="90" width="130" height="32" rx="6" fill="rgba(52,211,153,0.1)" stroke="rgba(52,211,153,0.25)" stroke-width="1"/>
      <text x="745" y="111" text-anchor="middle" fill="#6ee7b7" font-family="Inter,sans-serif" font-size="10" font-weight="500">Data Warehouse</text>
      <rect x="680" y="130" width="130" height="32" rx="6" fill="rgba(52,211,153,0.1)" stroke="rgba(52,211,153,0.25)" stroke-width="1"/>
      <text x="745" y="151" text-anchor="middle" fill="#6ee7b7" font-family="Inter,sans-serif" font-size="10" font-weight="500">Regulatory (MASAK)</text>
      <rect x="680" y="170" width="130" height="32" rx="6" fill="rgba(52,211,153,0.1)" stroke="rgba(52,211,153,0.25)" stroke-width="1"/>
      <text x="745" y="191" text-anchor="middle" fill="#6ee7b7" font-family="Inter,sans-serif" font-size="10" font-weight="500">Partner APIs</text>
    </svg>